<svg xmlns="http://www.w3.org/2000/svg" xmlns:xlink="http://www.w3.org/1999/xlink" width="500" zoomAndPan="magnify" viewBox="0 0 375 374.999991" height="500" preserveAspectRatio="xMidYMid meet" version="1.0"><defs><g/><clipPath id="7ed4bf57c7"><path d="M 135 48 L 348 48 L 348 278 L 135 278 Z M 135 48 " clip-rule="nonzero"/></clipPath><clipPath id="b7d7df0092"><path d="M 60.988281 96.808594 L 296.890625 -0.0195312 L 374.921875 190.089844 L 139.019531 286.917969 Z M 60.988281 96.808594 " clip-rule="nonzero"/></clipPath><clipPath id="4091c7726b"><path d="M 60.988281 96.808594 L 296.890625 -0.0195312 L 374.921875 190.089844 L 139.019531 286.917969 Z M 60.988281 96.808594 " clip-rule="nonzero"/></clipPath><clipPath id="927765f8a4"><path d="M 60.988281 96.808594 L 296.890625 -0.0195312 L 374.921875 190.089844 L 139.019531 286.917969 Z M 60.988281 96.808594 " clip-rule="nonzero"/></clipPath><clipPath id="289562a472"><path d="M 26 54 L 236 54 L 236 281 L 26 281 Z M 26 54 " clip-rule="nonzero"/></clipPath><clipPath id="50d917431b"><path d="M 309.5625 232.632812 L 77.132812 328.035156 L -0.046875 140.007812 L 232.386719 44.605469 Z M 309.5625 232.632812 " clip-rule="nonzero"/></clipPath><clipPath id="71d3e4805d"><path d="M 309.5625 232.632812 L 77.132812 328.035156 L -0.046875 140.007812 L 232.386719 44.605469 Z M 309.5625 232.632812 " clip-rule="nonzero"/></clipPath><clipPath id="01183f8a32"><path d="M 309.5625 232.632812 L 77.132812 328.035156 L -0.046875 140.007812 L 232.386719 44.605469 Z M 309.5625 232.632812 " clip-rule="nonzero"/></clipPath><clipPath id="747c2e81ce"><path d="M 286.152344 116.320312 L 370 116.320312 L 370 186.070312 L 286.152344 186.070312 Z M 286.152344 116.320312 " clip-rule="nonzero"/></clipPath><clipPath id="1ebf762999"><path d="M 295.621094 124.21875 L 360 124.21875 L 360 177.46875 L 295.621094 177.46875 Z M 295.621094 124.21875 " clip-rule="nonzero"/></clipPath></defs><g clip-path="url(#7ed4bf57c7)"><g clip-path="url(#b7d7df0092)"><g clip-path="url(#4091c7726b)"><g clip-path="url(#927765f8a4)"><path fill="#ffffff" d="M 216.539062 254.800781 C 188.628906 266.257812 161.074219 273.730469 135.933594 277.300781 C 152.582031 273.246094 169.863281 267.644531 187.285156 260.496094 C 274.609375 224.652344 332.191406 163.414062 315.894531 123.710938 C 304.8125 96.710938 262.386719 86.636719 208.878906 94.230469 C 275.675781 77.910156 332.105469 86.246094 345.152344 118.035156 C 361.441406 157.722656 303.859375 218.960938 216.539062 254.800781 Z M 157.066406 101.566406 L 156.828125 100.984375 C 191.691406 86.675781 191.898438 79.988281 178.890625 48.296875 L 179.472656 48.054688 C 192.484375 79.75 197.347656 84.351562 232.207031 70.042969 L 232.445312 70.625 C 197.585938 84.933594 197.351562 91.609375 210.359375 123.304688 L 209.777344 123.542969 C 196.769531 91.847656 191.929688 87.257812 157.066406 101.566406 " fill-opacity="1" fill-rule="evenodd"/></g></g></g></g><g clip-path="url(#289562a472)"><g clip-path="url(#50d917431b)"><g clip-path="url(#71d3e4805d)"><g clip-path="url(#01183f8a32)"><path fill="#ffffff" d="M 156.007812 76.25 C 183.507812 64.964844 210.660156 57.613281 235.441406 54.117188 C 219.035156 58.105469 202.003906 63.617188 184.839844 70.664062 C 98.800781 105.976562 42.117188 166.433594 58.234375 205.703125 C 69.195312 232.410156 111.035156 242.421875 163.769531 234.988281 C 97.941406 251.03125 42.304688 242.71875 29.398438 211.273438 C 13.289062 172.023438 69.972656 111.566406 156.007812 76.25 Z M 214.839844 227.804688 L 215.074219 228.382812 C 180.726562 242.480469 180.53125 249.085938 193.394531 280.433594 L 192.820312 280.671875 C 179.953125 249.324219 175.15625 244.769531 140.808594 258.867188 L 140.570312 258.289062 C 174.917969 244.191406 175.140625 237.59375 162.273438 206.246094 L 162.847656 206.011719 C 175.714844 237.359375 180.492188 241.902344 214.839844 227.804688 " fill-opacity="1" fill-rule="evenodd"/></g></g></g></g><g fill="#ffffff" fill-opacity="1"><g transform="translate(59.578425, 187.904033)"><g><path d="M 5.75 -6.875 L 4.203125 -6.875 L 4.203125 -1.53125 L 5.75 -1.53125 L 5.75 0 L 0.734375 0 L 0.734375 -1.53125 L 2.28125 -1.53125 L 2.28125 -6.875 L 0.734375 -6.875 L 0.734375 -8.390625 L 5.75 -8.390625 Z M 5.75 -6.875 "/></g></g></g><g fill="#ffffff" fill-opacity="1"><g transform="translate(69.005283, 187.904033)"><g><path d="M 7.015625 -8.390625 L 8.859375 -8.390625 L 8.859375 0 L 5.6875 0 L 3.0625 -5.734375 C 2.96875 -5.953125 2.878906 -6.164062 2.796875 -6.375 C 2.710938 -6.59375 2.640625 -6.804688 2.578125 -7.015625 L 2.578125 0 L 0.734375 0 L 0.734375 -8.390625 L 3.90625 -8.390625 L 6.5625 -2.578125 C 6.632812 -2.398438 6.710938 -2.207031 6.796875 -2 C 6.878906 -1.789062 6.953125 -1.578125 7.015625 -1.359375 Z M 7.015625 -8.390625 "/></g></g></g><g fill="#ffffff" fill-opacity="1"><g transform="translate(81.536581, 187.904033)"><g><path d="M 4.5625 0.21875 C 3.644531 0.21875 2.890625 0.0195312 2.296875 -0.375 C 1.703125 -0.78125 1.265625 -1.316406 0.984375 -1.984375 C 0.703125 -2.648438 0.5625 -3.390625 0.5625 -4.203125 C 0.5625 -5.015625 0.71875 -5.753906 1.03125 -6.421875 C 1.34375 -7.085938 1.832031 -7.617188 2.5 -8.015625 C 3.175781 -8.410156 4.039062 -8.609375 5.09375 -8.609375 C 6.019531 -8.609375 6.773438 -8.476562 7.359375 -8.21875 C 7.953125 -7.957031 8.394531 -7.597656 8.6875 -7.140625 C 8.988281 -6.679688 9.164062 -6.15625 9.21875 -5.5625 L 7.265625 -5.5625 C 7.210938 -6.039062 7.007812 -6.414062 6.65625 -6.6875 C 6.300781 -6.96875 5.773438 -7.109375 5.078125 -7.109375 C 4.234375 -7.109375 3.601562 -6.867188 3.1875 -6.390625 C 2.78125 -5.921875 2.578125 -5.1875 2.578125 -4.1875 C 2.578125 -3.25 2.765625 -2.53125 3.140625 -2.03125 C 3.523438 -1.539062 4.140625 -1.296875 4.984375 -1.296875 C 5.535156 -1.296875 5.976562 -1.378906 6.3125 -1.546875 C 6.644531 -1.722656 6.890625 -1.957031 7.046875 -2.25 C 7.210938 -2.550781 7.320312 -2.875 7.375 -3.21875 L 4.375 -3.21875 L 4.375 -4.46875 L 9.203125 -4.46875 L 9.203125 0 L 7.5625 0 L 7.5625 -1.609375 C 7.445312 -1.285156 7.269531 -0.984375 7.03125 -0.703125 C 6.789062 -0.429688 6.46875 -0.207031 6.0625 -0.03125 C 5.664062 0.132812 5.164062 0.21875 4.5625 0.21875 Z M 4.5625 0.21875 "/></g></g></g><g fill="#ffffff" fill-opacity="1"><g transform="translate(94.459082, 187.904033)"><g><path d="M 2.65625 -1.53125 L 7.359375 -1.53125 L 7.359375 0 L 0.734375 0 L 0.734375 -8.390625 L 7.328125 -8.390625 L 7.328125 -6.875 L 2.65625 -6.875 L 2.65625 -5 L 6.9375 -5 L 6.9375 -3.578125 L 2.65625 -3.578125 Z M 2.65625 -1.53125 "/></g></g></g><g fill="#ffffff" fill-opacity="1"><g transform="translate(105.387675, 187.904033)"><g><path d="M 7.015625 -8.390625 L 8.859375 -8.390625 L 8.859375 0 L 5.6875 0 L 3.0625 -5.734375 C 2.96875 -5.953125 2.878906 -6.164062 2.796875 -6.375 C 2.710938 -6.59375 2.640625 -6.804688 2.578125 -7.015625 L 2.578125 0 L 0.734375 0 L 0.734375 -8.390625 L 3.90625 -8.390625 L 6.5625 -2.578125 C 6.632812 -2.398438 6.710938 -2.207031 6.796875 -2 C 6.878906 -1.789062 6.953125 -1.578125 7.015625 -1.359375 Z M 7.015625 -8.390625 "/></g></g></g><g fill="#ffffff" fill-opacity="1"><g transform="translate(117.918971, 187.904033)"><g><path d="M 5.75 -6.875 L 4.203125 -6.875 L 4.203125 -1.53125 L 5.75 -1.53125 L 5.75 0 L 0.734375 0 L 0.734375 -1.53125 L 2.28125 -1.53125 L 2.28125 -6.875 L 0.734375 -6.875 L 0.734375 -8.390625 L 5.75 -8.390625 Z M 5.75 -6.875 "/></g></g></g><g fill="#ffffff" fill-opacity="1"><g transform="translate(127.345828, 187.904033)"><g><path d="M 2.65625 -1.53125 L 7.359375 -1.53125 L 7.359375 0 L 0.734375 0 L 0.734375 -8.390625 L 7.328125 -8.390625 L 7.328125 -6.875 L 2.65625 -6.875 L 2.65625 -5 L 6.9375 -5 L 6.9375 -3.578125 L 2.65625 -3.578125 Z M 2.65625 -1.53125 "/></g></g></g><g fill="#ffffff" fill-opacity="1"><g transform="translate(138.274422, 187.904033)"><g><path d="M 7.71875 -2.046875 L 7.71875 -1.484375 C 7.71875 -1.128906 7.734375 -0.84375 7.765625 -0.625 C 7.796875 -0.40625 7.832031 -0.195312 7.875 0 L 5.953125 0 C 5.910156 -0.15625 5.875 -0.347656 5.84375 -0.578125 C 5.8125 -0.816406 5.796875 -1.109375 5.796875 -1.453125 L 5.796875 -1.890625 C 5.796875 -2.359375 5.664062 -2.703125 5.40625 -2.921875 C 5.15625 -3.140625 4.816406 -3.25 4.390625 -3.25 L 2.65625 -3.25 L 2.65625 0 L 0.734375 0 L 0.734375 -8.390625 L 5.15625 -8.390625 C 6.082031 -8.390625 6.773438 -8.175781 7.234375 -7.75 C 7.703125 -7.332031 7.9375 -6.78125 7.9375 -6.09375 C 7.9375 -5.507812 7.769531 -5.023438 7.4375 -4.640625 C 7.101562 -4.253906 6.6875 -4.007812 6.1875 -3.90625 C 6.46875 -3.832031 6.722656 -3.726562 6.953125 -3.59375 C 7.191406 -3.457031 7.378906 -3.265625 7.515625 -3.015625 C 7.648438 -2.773438 7.71875 -2.453125 7.71875 -2.046875 Z M 4.734375 -4.625 C 5.171875 -4.625 5.476562 -4.722656 5.65625 -4.921875 C 5.84375 -5.128906 5.9375 -5.425781 5.9375 -5.8125 C 5.9375 -6.164062 5.835938 -6.4375 5.640625 -6.625 C 5.453125 -6.8125 5.148438 -6.90625 4.734375 -6.90625 L 2.65625 -6.90625 L 2.65625 -4.625 Z M 4.734375 -4.625 "/></g></g></g><g fill="#ffffff" fill-opacity="1"><g transform="translate(149.733034, 187.904033)"><g><path d="M 7.28125 0 L 6.671875 -1.71875 L 2.921875 -1.71875 L 2.3125 0 L 0.375 0 L 3.328125 -8.390625 L 6.265625 -8.390625 L 9.21875 0 Z M 3.4375 -3.1875 L 6.15625 -3.1875 L 4.796875 -7.0625 Z M 3.4375 -3.1875 "/></g></g></g><g fill="#ffffff" fill-opacity="1"><g transform="translate(162.251702, 187.904033)"><g/></g></g><g fill="#ffffff" fill-opacity="1"><g transform="translate(168.384833, 187.904033)"><g><path d="M 4.765625 -8.390625 C 5.453125 -8.390625 6.039062 -8.273438 6.53125 -8.046875 C 7.03125 -7.828125 7.441406 -7.519531 7.765625 -7.125 C 8.097656 -6.738281 8.34375 -6.296875 8.5 -5.796875 C 8.65625 -5.296875 8.734375 -4.769531 8.734375 -4.21875 C 8.734375 -3.664062 8.65625 -3.132812 8.5 -2.625 C 8.34375 -2.125 8.097656 -1.675781 7.765625 -1.28125 C 7.441406 -0.882812 7.03125 -0.570312 6.53125 -0.34375 C 6.039062 -0.113281 5.453125 0 4.765625 0 L 0.734375 0 L 0.734375 -8.390625 Z M 4.34375 -1.53125 C 5.195312 -1.53125 5.804688 -1.753906 6.171875 -2.203125 C 6.546875 -2.648438 6.734375 -3.320312 6.734375 -4.21875 C 6.734375 -5.113281 6.546875 -5.78125 6.171875 -6.21875 C 5.804688 -6.65625 5.195312 -6.875 4.34375 -6.875 L 2.65625 -6.875 L 2.65625 -1.53125 Z M 4.34375 -1.53125 "/></g></g></g><g fill="#ffffff" fill-opacity="1"><g transform="translate(180.537526, 187.904033)"><g><path d="M 2.65625 -1.53125 L 7.359375 -1.53125 L 7.359375 0 L 0.734375 0 L 0.734375 -8.390625 L 7.328125 -8.390625 L 7.328125 -6.875 L 2.65625 -6.875 L 2.65625 -5 L 6.9375 -5 L 6.9375 -3.578125 L 2.65625 -3.578125 Z M 2.65625 -1.53125 "/></g></g></g><g fill="#ffffff" fill-opacity="1"><g transform="translate(191.466119, 187.904033)"><g/></g></g><g fill="#ffffff" fill-opacity="1"><g transform="translate(197.599251, 187.904033)"><g><path d="M 0.5 -2.765625 L 2.359375 -2.765625 C 2.390625 -2.316406 2.550781 -1.945312 2.84375 -1.65625 C 3.144531 -1.363281 3.628906 -1.21875 4.296875 -1.21875 C 4.929688 -1.21875 5.367188 -1.316406 5.609375 -1.515625 C 5.859375 -1.710938 5.984375 -1.984375 5.984375 -2.328125 C 5.984375 -2.929688 5.609375 -3.285156 4.859375 -3.390625 L 3 -3.625 C 2.257812 -3.71875 1.6875 -3.960938 1.28125 -4.359375 C 0.882812 -4.765625 0.6875 -5.316406 0.6875 -6.015625 C 0.6875 -6.765625 0.972656 -7.382812 1.546875 -7.875 C 2.117188 -8.363281 2.992188 -8.609375 4.171875 -8.609375 C 5.015625 -8.609375 5.695312 -8.484375 6.21875 -8.234375 C 6.738281 -7.992188 7.128906 -7.671875 7.390625 -7.265625 C 7.648438 -6.859375 7.796875 -6.40625 7.828125 -5.90625 L 5.953125 -5.90625 C 5.898438 -6.300781 5.726562 -6.613281 5.4375 -6.84375 C 5.15625 -7.082031 4.734375 -7.203125 4.171875 -7.203125 C 3.660156 -7.203125 3.269531 -7.101562 3 -6.90625 C 2.738281 -6.707031 2.609375 -6.445312 2.609375 -6.125 C 2.609375 -5.875 2.6875 -5.664062 2.84375 -5.5 C 3 -5.332031 3.25 -5.226562 3.59375 -5.1875 L 5.359375 -4.96875 C 7.066406 -4.78125 7.921875 -3.960938 7.921875 -2.515625 C 7.921875 -1.960938 7.796875 -1.476562 7.546875 -1.0625 C 7.304688 -0.65625 6.914062 -0.335938 6.375 -0.109375 C 5.84375 0.109375 5.140625 0.21875 4.265625 0.21875 C 3.578125 0.21875 2.992188 0.132812 2.515625 -0.03125 C 2.046875 -0.195312 1.664062 -0.421875 1.375 -0.703125 C 1.082031 -0.984375 0.863281 -1.300781 0.71875 -1.65625 C 0.582031 -2.019531 0.507812 -2.390625 0.5 -2.765625 Z M 0.5 -2.765625 "/></g></g></g><g fill="#ffffff" fill-opacity="1"><g transform="translate(208.969535, 187.904033)"><g><path d="M 5 0.21875 C 4.1875 0.21875 3.5 0.0976562 2.9375 -0.140625 C 2.375 -0.378906 1.914062 -0.703125 1.5625 -1.109375 C 1.21875 -1.523438 0.960938 -2 0.796875 -2.53125 C 0.640625 -3.0625 0.5625 -3.613281 0.5625 -4.1875 C 0.5625 -4.757812 0.640625 -5.304688 0.796875 -5.828125 C 0.960938 -6.359375 1.21875 -6.832031 1.5625 -7.25 C 1.914062 -7.664062 2.375 -7.992188 2.9375 -8.234375 C 3.5 -8.484375 4.1875 -8.609375 5 -8.609375 C 5.8125 -8.609375 6.492188 -8.484375 7.046875 -8.234375 C 7.609375 -7.992188 8.0625 -7.664062 8.40625 -7.25 C 8.757812 -6.832031 9.015625 -6.359375 9.171875 -5.828125 C 9.335938 -5.304688 9.421875 -4.757812 9.421875 -4.1875 C 9.421875 -3.613281 9.335938 -3.0625 9.171875 -2.53125 C 9.015625 -2.007812 8.757812 -1.539062 8.40625 -1.125 C 8.0625 -0.707031 7.609375 -0.378906 7.046875 -0.140625 C 6.492188 0.0976562 5.8125 0.21875 5 0.21875 Z M 2.578125 -4.1875 C 2.578125 -3.582031 2.648438 -3.066406 2.796875 -2.640625 C 2.941406 -2.222656 3.191406 -1.90625 3.546875 -1.6875 C 3.898438 -1.46875 4.382812 -1.359375 5 -1.359375 C 5.613281 -1.359375 6.097656 -1.46875 6.453125 -1.6875 C 6.804688 -1.90625 7.054688 -2.222656 7.203125 -2.640625 C 7.347656 -3.066406 7.421875 -3.582031 7.421875 -4.1875 C 7.421875 -4.8125 7.347656 -5.332031 7.203125 -5.75 C 7.054688 -6.175781 6.804688 -6.5 6.453125 -6.71875 C 6.097656 -6.9375 5.613281 -7.046875 5 -7.046875 C 4.382812 -7.046875 3.898438 -6.9375 3.546875 -6.71875 C 3.191406 -6.5 2.941406 -6.175781 2.796875 -5.75 C 2.648438 -5.332031 2.578125 -4.8125 2.578125 -4.1875 Z M 2.578125 -4.1875 "/></g></g></g><g fill="#ffffff" fill-opacity="1"><g transform="translate(221.892039, 187.904033)"><g><path d="M 7.28125 -6.875 L 2.65625 -6.875 L 2.65625 -4.84375 L 6.859375 -4.84375 L 6.859375 -3.421875 L 2.65625 -3.421875 L 2.65625 0 L 0.734375 0 L 0.734375 -8.390625 L 7.28125 -8.390625 Z M 7.28125 -6.875 "/></g></g></g><g fill="#ffffff" fill-opacity="1"><g transform="translate(232.643968, 187.904033)"><g><path d="M 7.859375 -8.390625 L 7.859375 -6.875 L 5.09375 -6.875 L 5.09375 0 L 3.1875 0 L 3.1875 -6.875 L 0.421875 -6.875 L 0.421875 -8.390625 Z M 7.859375 -8.390625 "/></g></g></g><g fill="#ffffff" fill-opacity="1"><g transform="translate(243.862821, 187.904033)"><g><path d="M 11.1875 -8.390625 L 13.078125 -8.390625 L 11.5 0 L 8.25 0 L 6.8125 -6.90625 L 5.359375 0 L 2.109375 0 L 0.546875 -8.390625 L 2.421875 -8.390625 L 3.78125 -1.125 L 5.359375 -8.390625 L 8.25 -8.390625 L 9.828125 -1.125 Z M 11.1875 -8.390625 "/></g></g></g><g fill="#ffffff" fill-opacity="1"><g transform="translate(260.407171, 187.904033)"><g><path d="M 7.28125 0 L 6.671875 -1.71875 L 2.921875 -1.71875 L 2.3125 0 L 0.375 0 L 3.328125 -8.390625 L 6.265625 -8.390625 L 9.21875 0 Z M 3.4375 -3.1875 L 6.15625 -3.1875 L 4.796875 -7.0625 Z M 3.4375 -3.1875 "/></g></g></g><g fill="#ffffff" fill-opacity="1"><g transform="translate(272.925846, 187.904033)"><g><path d="M 7.71875 -2.046875 L 7.71875 -1.484375 C 7.71875 -1.128906 7.734375 -0.84375 7.765625 -0.625 C 7.796875 -0.40625 7.832031 -0.195312 7.875 0 L 5.953125 0 C 5.910156 -0.15625 5.875 -0.347656 5.84375 -0.578125 C 5.8125 -0.816406 5.796875 -1.109375 5.796875 -1.453125 L 5.796875 -1.890625 C 5.796875 -2.359375 5.664062 -2.703125 5.40625 -2.921875 C 5.15625 -3.140625 4.816406 -3.25 4.390625 -3.25 L 2.65625 -3.25 L 2.65625 0 L 0.734375 0 L 0.734375 -8.390625 L 5.15625 -8.390625 C 6.082031 -8.390625 6.773438 -8.175781 7.234375 -7.75 C 7.703125 -7.332031 7.9375 -6.78125 7.9375 -6.09375 C 7.9375 -5.507812 7.769531 -5.023438 7.4375 -4.640625 C 7.101562 -4.253906 6.6875 -4.007812 6.1875 -3.90625 C 6.46875 -3.832031 6.722656 -3.726562 6.953125 -3.59375 C 7.191406 -3.457031 7.378906 -3.265625 7.515625 -3.015625 C 7.648438 -2.773438 7.71875 -2.453125 7.71875 -2.046875 Z M 4.734375 -4.625 C 5.171875 -4.625 5.476562 -4.722656 5.65625 -4.921875 C 5.84375 -5.128906 5.9375 -5.425781 5.9375 -5.8125 C 5.9375 -6.164062 5.835938 -6.4375 5.640625 -6.625 C 5.453125 -6.8125 5.148438 -6.90625 4.734375 -6.90625 L 2.65625 -6.90625 L 2.65625 -4.625 Z M 4.734375 -4.625 "/></g></g></g><g fill="#ffffff" fill-opacity="1"><g transform="translate(284.384467, 187.904033)"><g><path d="M 2.65625 -1.53125 L 7.359375 -1.53125 L 7.359375 0 L 0.734375 0 L 0.734375 -8.390625 L 7.328125 -8.390625 L 7.328125 -6.875 L 2.65625 -6.875 L 2.65625 -5 L 6.9375 -5 L 6.9375 -3.578125 L 2.65625 -3.578125 Z M 2.65625 -1.53125 "/></g></g></g><g clip-path="url(#747c2e81ce)"><path fill="#000000" d="M 339.523438 150.304688 L 370 126.992188 L 334.902344 135.34375 L 329.019531 116.320312 L 316.851562 139.636719 L 286.152344 146.941406 L 308.964844 154.742188 L 292.507812 186.269531 L 326.074219 160.59375 L 344.671875 166.953125 Z M 339.523438 150.304688 " fill-opacity="1" fill-rule="nonzero"/></g><g clip-path="url(#1ebf762999)"><path fill="#ffffff" d="M 336.480469 150.230469 L 359.808594 132.386719 L 332.941406 138.777344 L 328.441406 124.21875 L 319.125 142.066406 L 295.628906 147.65625 L 313.089844 153.628906 L 300.492188 177.761719 L 326.183594 158.105469 L 340.421875 162.976562 Z M 336.480469 150.230469 " fill-opacity="1" fill-rule="nonzero"/></g><g fill="#ffffff" fill-opacity="1"><g transform="translate(82.349954, 171.658815)"><g><path d="M 43.390625 -37.703125 C 44.285156 -40.972656 45.550781 -43.4375 47.1875 -45.09375 C 48.820312 -46.75 51.082031 -47.578125 53.96875 -47.578125 C 56.238281 -47.578125 58.0625 -46.851562 59.4375 -45.40625 C 60.8125 -43.96875 61.5 -42.179688 61.5 -40.046875 C 61.5 -39.335938 61.378906 -38.507812 61.140625 -37.5625 C 60.617188 -35.476562 59.695312 -33.972656 58.375 -33.046875 C 57.050781 -32.128906 55.609375 -31.671875 54.046875 -31.671875 C 53.234375 -31.671875 52.507812 -31.726562 51.875 -31.84375 C 51.238281 -31.96875 50.632812 -32.125 50.0625 -32.3125 L 45.875 -16.90625 C 44.363281 -11.269531 41.832031 -6.972656 38.28125 -4.015625 C 34.726562 -1.054688 29.898438 0.421875 23.796875 0.421875 C 18.203125 0.421875 13.851562 -0.640625 10.75 -2.765625 C 7.65625 -4.898438 6.109375 -8.21875 6.109375 -12.71875 C 6.109375 -14.894531 6.488281 -17.285156 7.25 -19.890625 L 12.640625 -38.984375 C 12.828125 -39.597656 12.921875 -40.191406 12.921875 -40.765625 C 12.921875 -41.328125 12.835938 -41.785156 12.671875 -42.140625 C 12.503906 -42.503906 12.28125 -42.921875 12 -43.390625 C 11.570312 -44.003906 11.359375 -44.5 11.359375 -44.875 C 11.359375 -45.070312 11.40625 -45.3125 11.5 -45.59375 C 11.6875 -46.207031 12.113281 -46.644531 12.78125 -46.90625 C 13.445312 -47.164062 14.414062 -47.296875 15.6875 -47.296875 L 32.390625 -47.296875 C 34.421875 -47.296875 35.4375 -46.679688 35.4375 -45.453125 C 35.4375 -45.171875 35.410156 -44.929688 35.359375 -44.734375 C 35.222656 -44.304688 35.023438 -43.960938 34.765625 -43.703125 C 34.503906 -43.441406 34.113281 -43.148438 33.59375 -42.828125 C 32.832031 -42.398438 32.210938 -41.925781 31.734375 -41.40625 C 31.265625 -40.882812 30.863281 -40.078125 30.53125 -38.984375 L 24.359375 -17.25 C 23.929688 -15.644531 23.71875 -14.273438 23.71875 -13.140625 C 23.71875 -9.960938 25.421875 -8.375 28.828125 -8.375 C 30.910156 -8.375 32.648438 -9.046875 34.046875 -10.390625 C 35.441406 -11.742188 36.613281 -14.054688 37.5625 -17.328125 Z M 43.390625 -37.703125 "/></g></g></g><g fill="#ffffff" fill-opacity="1"><g transform="translate(138.310261, 171.658815)"><g><path d="M 54.25 -32.875 C 53.5 -30.132812 52.082031 -27.992188 50 -26.453125 C 47.914062 -24.910156 45.285156 -23.953125 42.109375 -23.578125 C 44.378906 -23.390625 46.082031 -22.726562 47.21875 -21.59375 C 48.363281 -20.457031 48.9375 -18.960938 48.9375 -17.109375 C 48.9375 -16.398438 48.816406 -15.523438 48.578125 -14.484375 L 47.796875 -11 C 47.703125 -10.53125 47.65625 -10.203125 47.65625 -10.015625 C 47.65625 -9.398438 47.796875 -8.9375 48.078125 -8.625 C 48.359375 -8.320312 48.757812 -8.171875 49.28125 -8.171875 C 50.28125 -8.171875 51.003906 -8.023438 51.453125 -7.734375 C 51.898438 -7.453125 52.050781 -6.929688 51.90625 -6.171875 C 51.71875 -5.085938 51.148438 -4.023438 50.203125 -2.984375 C 49.253906 -1.941406 47.914062 -1.078125 46.1875 -0.390625 C 44.46875 0.296875 42.375 0.640625 39.90625 0.640625 C 36.78125 0.640625 34.296875 -0.0546875 32.453125 -1.453125 C 30.609375 -2.847656 29.6875 -4.847656 29.6875 -7.453125 C 29.6875 -8.453125 29.828125 -9.519531 30.109375 -10.65625 L 31.25 -15.203125 C 31.4375 -15.816406 31.53125 -16.453125 31.53125 -17.109375 C 31.53125 -18.203125 31.160156 -18.984375 30.421875 -19.453125 C 29.691406 -19.929688 28.523438 -20.171875 26.921875 -20.171875 L 24.21875 -20.171875 L 20.953125 -8.375 C 20.859375 -8.09375 20.8125 -7.738281 20.8125 -7.3125 C 20.8125 -6.65625 20.972656 -6.085938 21.296875 -5.609375 C 21.628906 -5.140625 22.082031 -4.644531 22.65625 -4.125 C 23.082031 -3.789062 23.410156 -3.46875 23.640625 -3.15625 C 23.878906 -2.851562 24 -2.535156 24 -2.203125 C 24 -1.398438 23.617188 -0.832031 22.859375 -0.5 C 22.109375 -0.164062 21 0 19.53125 0 L 1.703125 0 C 0.472656 0 -0.445312 -0.222656 -1.0625 -0.671875 C -1.675781 -1.117188 -1.890625 -1.75 -1.703125 -2.5625 C -1.609375 -2.988281 -1.429688 -3.332031 -1.171875 -3.59375 C -0.910156 -3.851562 -0.519531 -4.144531 0 -4.46875 C 0.800781 -4.945312 1.4375 -5.445312 1.90625 -5.96875 C 2.382812 -6.488281 2.765625 -7.289062 3.046875 -8.375 L 11.71875 -38.984375 C 11.90625 -39.597656 12 -40.191406 12 -40.765625 C 12 -41.285156 11.914062 -41.722656 11.75 -42.078125 C 11.582031 -42.429688 11.359375 -42.84375 11.078125 -43.3125 C 10.648438 -43.9375 10.4375 -44.4375 10.4375 -44.8125 C 10.4375 -44.957031 10.484375 -45.21875 10.578125 -45.59375 C 10.765625 -46.207031 11.175781 -46.644531 11.8125 -46.90625 C 12.457031 -47.164062 13.441406 -47.296875 14.765625 -47.296875 L 38.5625 -47.296875 C 41.832031 -47.296875 44.6875 -46.796875 47.125 -45.796875 C 49.5625 -44.804688 51.429688 -43.445312 52.734375 -41.71875 C 54.035156 -39.988281 54.6875 -38.035156 54.6875 -35.859375 C 54.6875 -34.867188 54.539062 -33.875 54.25 -32.875 Z M 36.078125 -33.59375 C 36.316406 -34.675781 36.4375 -35.503906 36.4375 -36.078125 C 36.4375 -38.585938 35.0625 -39.84375 32.3125 -39.84375 L 29.328125 -39.84375 L 26.203125 -27.265625 L 29.1875 -27.265625 C 31.03125 -27.265625 32.484375 -27.710938 33.546875 -28.609375 C 34.617188 -29.515625 35.460938 -31.175781 36.078125 -33.59375 Z M 36.078125 -33.59375 "/></g></g></g><g fill="#ffffff" fill-opacity="1"><g transform="translate(192.211115, 171.658815)"><g><path d="M 34.578125 -48.359375 C 40.546875 -48.359375 45.207031 -46.945312 48.5625 -44.125 C 51.925781 -41.3125 53.609375 -37.253906 53.609375 -31.953125 C 53.609375 -29.441406 53.234375 -26.742188 52.484375 -23.859375 C 51.054688 -18.554688 48.851562 -14.054688 45.875 -10.359375 C 42.894531 -6.671875 39.34375 -3.878906 35.21875 -1.984375 C 31.101562 -0.0859375 26.628906 0.859375 21.796875 0.859375 C 15.878906 0.859375 11.238281 -0.546875 7.875 -3.359375 C 4.519531 -6.179688 2.84375 -10.242188 2.84375 -15.546875 C 2.84375 -17.960938 3.242188 -20.734375 4.046875 -23.859375 C 5.421875 -29.117188 7.585938 -33.582031 10.546875 -37.25 C 13.503906 -40.914062 17.03125 -43.679688 21.125 -45.546875 C 25.21875 -47.421875 29.703125 -48.359375 34.578125 -48.359375 Z M 33.3125 -41.40625 C 31.882812 -41.40625 30.601562 -40.835938 29.46875 -39.703125 C 28.332031 -38.566406 27.207031 -36.707031 26.09375 -34.125 C 24.976562 -31.539062 23.785156 -27.953125 22.515625 -23.359375 C 20.617188 -16.734375 19.671875 -12.164062 19.671875 -9.65625 C 19.671875 -8.1875 19.929688 -7.117188 20.453125 -6.453125 C 20.972656 -5.796875 21.800781 -5.46875 22.9375 -5.46875 C 24.351562 -5.46875 25.628906 -6.046875 26.765625 -7.203125 C 27.910156 -8.367188 29.023438 -10.226562 30.109375 -12.78125 C 31.203125 -15.34375 32.410156 -18.867188 33.734375 -23.359375 C 35.578125 -29.898438 36.5 -34.492188 36.5 -37.140625 C 36.5 -38.648438 36.238281 -39.738281 35.71875 -40.40625 C 35.195312 -41.070312 34.394531 -41.40625 33.3125 -41.40625 Z M 33.3125 -41.40625 "/></g></g></g><g fill="#ffffff" fill-opacity="1"><g transform="translate(244.265563, 171.658815)"><g><path d="M 54.25 -32.875 C 53.5 -30.132812 52.082031 -27.992188 50 -26.453125 C 47.914062 -24.910156 45.285156 -23.953125 42.109375 -23.578125 C 44.378906 -23.390625 46.082031 -22.726562 47.21875 -21.59375 C 48.363281 -20.457031 48.9375 -18.960938 48.9375 -17.109375 C 48.9375 -16.398438 48.816406 -15.523438 48.578125 -14.484375 L 47.796875 -11 C 47.703125 -10.53125 47.65625 -10.203125 47.65625 -10.015625 C 47.65625 -9.398438 47.796875 -8.9375 48.078125 -8.625 C 48.359375 -8.320312 48.757812 -8.171875 49.28125 -8.171875 C 50.28125 -8.171875 51.003906 -8.023438 51.453125 -7.734375 C 51.898438 -7.453125 52.050781 -6.929688 51.90625 -6.171875 C 51.71875 -5.085938 51.148438 -4.023438 50.203125 -2.984375 C 49.253906 -1.941406 47.914062 -1.078125 46.1875 -0.390625 C 44.46875 0.296875 42.375 0.640625 39.90625 0.640625 C 36.78125 0.640625 34.296875 -0.0546875 32.453125 -1.453125 C 30.609375 -2.847656 29.6875 -4.847656 29.6875 -7.453125 C 29.6875 -8.453125 29.828125 -9.519531 30.109375 -10.65625 L 31.25 -15.203125 C 31.4375 -15.816406 31.53125 -16.453125 31.53125 -17.109375 C 31.53125 -18.203125 31.160156 -18.984375 30.421875 -19.453125 C 29.691406 -19.929688 28.523438 -20.171875 26.921875 -20.171875 L 24.21875 -20.171875 L 20.953125 -8.375 C 20.859375 -8.09375 20.8125 -7.738281 20.8125 -7.3125 C 20.8125 -6.65625 20.972656 -6.085938 21.296875 -5.609375 C 21.628906 -5.140625 22.082031 -4.644531 22.65625 -4.125 C 23.082031 -3.789062 23.410156 -3.46875 23.640625 -3.15625 C 23.878906 -2.851562 24 -2.535156 24 -2.203125 C 24 -1.398438 23.617188 -0.832031 22.859375 -0.5 C 22.109375 -0.164062 21 0 19.53125 0 L 1.703125 0 C 0.472656 0 -0.445312 -0.222656 -1.0625 -0.671875 C -1.675781 -1.117188 -1.890625 -1.75 -1.703125 -2.5625 C -1.609375 -2.988281 -1.429688 -3.332031 -1.171875 -3.59375 C -0.910156 -3.851562 -0.519531 -4.144531 0 -4.46875 C 0.800781 -4.945312 1.4375 -5.445312 1.90625 -5.96875 C 2.382812 -6.488281 2.765625 -7.289062 3.046875 -8.375 L 11.71875 -38.984375 C 11.90625 -39.597656 12 -40.191406 12 -40.765625 C 12 -41.285156 11.914062 -41.722656 11.75 -42.078125 C 11.582031 -42.429688 11.359375 -42.84375 11.078125 -43.3125 C 10.648438 -43.9375 10.4375 -44.4375 10.4375 -44.8125 C 10.4375 -44.957031 10.484375 -45.21875 10.578125 -45.59375 C 10.765625 -46.207031 11.175781 -46.644531 11.8125 -46.90625 C 12.457031 -47.164062 13.441406 -47.296875 14.765625 -47.296875 L 38.5625 -47.296875 C 41.832031 -47.296875 44.6875 -46.796875 47.125 -45.796875 C 49.5625 -44.804688 51.429688 -43.445312 52.734375 -41.71875 C 54.035156 -39.988281 54.6875 -38.035156 54.6875 -35.859375 C 54.6875 -34.867188 54.539062 -33.875 54.25 -32.875 Z M 36.078125 -33.59375 C 36.316406 -34.675781 36.4375 -35.503906 36.4375 -36.078125 C 36.4375 -38.585938 35.0625 -39.84375 32.3125 -39.84375 L 29.328125 -39.84375 L 26.203125 -27.265625 L 29.1875 -27.265625 C 31.03125 -27.265625 32.484375 -27.710938 33.546875 -28.609375 C 34.617188 -29.515625 35.460938 -31.175781 36.078125 -33.59375 Z M 36.078125 -33.59375 "/></g></g></g><path stroke-linecap="butt" transform="matrix(1.268284, 0, 0, 1.268284, 27.387214, 101.83339)" fill="none" stroke-linejoin="miter" d="M 40.408531 47.396253 C 40.254534 47.879805 40.174455 48.363356 40.174455 48.846908 C 40.174455 49.256541 40.229894 49.601496 40.340772 49.884851 C 40.45781 50.168206 40.581008 50.396122 40.710366 50.568599 C 40.845884 50.731837 40.932122 50.851955 40.969082 50.922793 C 41.341755 51.298547 41.529632 51.671221 41.529632 52.043895 C 41.529632 52.117813 41.489593 52.30569 41.406434 52.604445 C 41.261677 53.124956 40.932122 53.48839 40.420851 53.697827 C 39.921899 53.901103 39.151912 53.999662 38.11089 53.999662 L 24.836313 53.999662 C 24.050926 53.999662 23.447256 53.873384 23.016063 53.617748 C 22.58795 53.352873 22.375434 52.998679 22.375434 52.552086 C 22.375434 52.32417 22.430873 52.077774 22.538671 51.812898 C 22.649549 51.511064 22.803547 51.280067 23.003743 51.11375 C 23.21318 50.950513 23.505775 50.756476 23.878449 50.52856 C 24.479039 50.189766 24.96875 49.817092 25.341424 49.407459 C 25.714098 48.994746 26.031332 48.326397 26.283888 47.396253 L 27.746864 42.569974 L 19.01213 42.569974 L 17.493716 45.77004 C 16.865406 47.146777 16.551252 48.224759 16.551252 49.010146 C 16.551252 49.465978 16.62517 49.835572 16.769928 50.115847 C 16.923925 50.389962 17.148762 50.676398 17.438277 50.978232 C 17.703152 51.280067 17.881789 51.535703 17.974188 51.74514 C 18.063506 51.945336 18.072746 52.213292 17.998827 52.552086 C 17.85407 53.106477 17.542995 53.48839 17.071763 53.697827 C 16.606691 53.901103 15.870583 53.999662 14.8696 53.999662 L 6.5291 53.999662 C 5.663634 53.999662 5.007605 53.839504 4.561013 53.52227 C 4.11442 53.201955 3.889584 52.783082 3.889584 52.262571 C 3.889584 51.661981 4.105181 51.187669 4.533293 50.842715 C 4.961406 50.485441 5.605115 50.103527 6.461341 49.693894 C 7.582442 49.127184 8.478707 48.575873 9.153216 48.039962 C 9.827725 47.491731 10.406755 46.737144 10.890307 45.77004 L 20.857019 25.097427 C 22.387754 21.888121 24.189523 19.56892 26.259249 18.139824 C 28.335134 16.698408 31.070128 15.9777 34.461151 15.9777 C 38.271047 15.9777 41.218557 16.753847 43.306762 18.303061 C 45.404207 19.852275 46.45139 22.008239 46.45139 24.770953 C 46.45139 25.925933 46.263513 27.120953 45.890839 28.352932 Z M 29.428515 36.979868 L 32.397586 27.120953 C 32.542343 26.674361 32.616262 26.209288 32.616262 25.725737 C 32.616262 25.014269 32.419145 24.481437 32.027992 24.127243 C 31.636838 23.769969 31.082448 23.594412 30.37406 23.594412 C 29.480875 23.594412 28.713967 23.859288 28.076418 24.385959 C 27.448109 24.90647 26.813639 25.836615 26.17609 27.176392 L 21.580807 36.979868 Z M 29.428515 36.979868 " stroke="#000000" stroke-width="2.66" stroke-opacity="1" stroke-miterlimit="4"/><g fill="#ffffff" fill-opacity="1"><g transform="translate(35.234723, 170.320741)"><g><path d="M 43.40625 -8.375 C 43.207031 -7.757812 43.109375 -7.144531 43.109375 -6.53125 C 43.109375 -6.007812 43.179688 -5.570312 43.328125 -5.21875 C 43.472656 -4.863281 43.628906 -4.578125 43.796875 -4.359375 C 43.960938 -4.148438 44.066406 -4 44.109375 -3.90625 C 44.585938 -3.4375 44.828125 -2.960938 44.828125 -2.484375 C 44.828125 -2.390625 44.773438 -2.15625 44.671875 -1.78125 C 44.484375 -1.113281 44.070312 -0.648438 43.4375 -0.390625 C 42.800781 -0.128906 41.816406 0 40.484375 0 L 23.65625 0 C 22.65625 0 21.882812 -0.164062 21.34375 -0.5 C 20.800781 -0.832031 20.53125 -1.28125 20.53125 -1.84375 C 20.53125 -2.125 20.597656 -2.429688 20.734375 -2.765625 C 20.878906 -3.148438 21.082031 -3.445312 21.34375 -3.65625 C 21.601562 -3.875 21.972656 -4.125 22.453125 -4.40625 C 23.203125 -4.832031 23.8125 -5.304688 24.28125 -5.828125 C 24.757812 -6.347656 25.164062 -7.195312 25.5 -8.375 L 27.34375 -14.484375 L 16.265625 -14.484375 L 14.34375 -10.4375 C 13.539062 -8.6875 13.140625 -7.316406 13.140625 -6.328125 C 13.140625 -5.753906 13.234375 -5.289062 13.421875 -4.9375 C 13.609375 -4.582031 13.894531 -4.210938 14.28125 -3.828125 C 14.613281 -3.453125 14.835938 -3.132812 14.953125 -2.875 C 15.066406 -2.613281 15.078125 -2.269531 14.984375 -1.84375 C 14.796875 -1.132812 14.40625 -0.648438 13.8125 -0.390625 C 13.21875 -0.128906 12.285156 0 11.015625 0 L 0.421875 0 C -0.660156 0 -1.484375 -0.195312 -2.046875 -0.59375 C -2.617188 -1 -2.90625 -1.535156 -2.90625 -2.203125 C -2.90625 -2.960938 -2.632812 -3.566406 -2.09375 -4.015625 C -1.550781 -4.460938 -0.734375 -4.945312 0.359375 -5.46875 C 1.773438 -6.175781 2.910156 -6.875 3.765625 -7.5625 C 4.617188 -8.25 5.351562 -9.207031 5.96875 -10.4375 L 18.609375 -36.65625 C 20.546875 -40.726562 22.828125 -43.675781 25.453125 -45.5 C 28.085938 -47.320312 31.5625 -48.234375 35.875 -48.234375 C 40.695312 -48.234375 44.4375 -47.25 47.09375 -45.28125 C 49.75 -43.3125 51.078125 -40.578125 51.078125 -37.078125 C 51.078125 -35.609375 50.835938 -34.09375 50.359375 -32.53125 Z M 29.484375 -21.59375 L 33.25 -34.09375 C 33.4375 -34.664062 33.53125 -35.257812 33.53125 -35.875 C 33.53125 -36.769531 33.28125 -37.441406 32.78125 -37.890625 C 32.28125 -38.335938 31.582031 -38.5625 30.6875 -38.5625 C 29.550781 -38.5625 28.578125 -38.226562 27.765625 -37.5625 C 26.960938 -36.90625 26.160156 -35.726562 25.359375 -34.03125 L 19.53125 -21.59375 Z M 29.484375 -21.59375 "/></g></g></g></svg>